<?xml version="1.0" encoding="UTF-8" standalone="no"?>
<!-- Created with Inkscape (http://www.inkscape.org/) -->

<svg
   width="76.857643mm"
   height="171.356mm"
   viewBox="0 0 76.857643 171.356"
   version="1.1"
   id="svg1"
   inkscape:version="1.3 (0e150ed6c4, 2023-07-21)"
   sodipodi:docname="dibujo-white.svg"
   xmlns:inkscape="http://www.inkscape.org/namespaces/inkscape"
   xmlns:sodipodi="http://sodipodi.sourceforge.net/DTD/sodipodi-0.dtd"
   xmlns="http://www.w3.org/2000/svg"
   xmlns:svg="http://www.w3.org/2000/svg">
  <sodipodi:namedview
     id="namedview1"
     pagecolor="#ffffff"
     bordercolor="#000000"
     borderopacity="0.25"
     inkscape:showpageshadow="2"
     inkscape:pageopacity="0.0"
     inkscape:pagecheckerboard="0"
     inkscape:deskcolor="#d1d1d1"
     inkscape:document-units="mm"
     inkscape:zoom="0.45344416"
     inkscape:cx="44.106864"
     inkscape:cy="364.9843"
     inkscape:window-width="1366"
     inkscape:window-height="705"
     inkscape:window-x="-8"
     inkscape:window-y="-8"
     inkscape:window-maximized="1"
     inkscape:current-layer="layer1"
     inkscape:export-bgcolor="#ffffff00" />
  <defs
     id="defs1" />
  <g
     inkscape:label="Capa 1"
     inkscape:groupmode="layer"
     id="layer1"
     style="fill:#ffffff"
     transform="translate(-66.689684,-50.766965)">
    <path
       style="mix-blend-mode:normal;fill:#ffffff;stroke-width:0.264583"
       id="path8"
       d="m 103.50561,179.33879 c -0.85918,0.82451 0.0517,-0.18902 -0.47545,0.92771 -0.15043,0.31865 -0.49565,0.50787 -0.68557,0.80469 -0.42801,0.66893 0.12614,0.10227 -0.37737,0.56554 -0.022,0.0442 -0.0219,0.15492 -0.066,0.13266 -0.0545,-0.0275 -0.014,-0.12181 -0.0296,-0.18089 -0.0288,-0.10933 -0.20371,-0.37455 -0.10305,-0.32311 2.15672,1.10208 4.18626,2.4447 6.35701,3.51888 0.2496,0.12351 -0.386,-0.40587 -0.53785,-0.63932 -0.25893,-0.39805 -0.45937,-0.83122 -0.68906,-1.24683 -3.8541,-9.19198 -4.92721,-19.28375 -6.14841,-29.08653 -1.523849,-14.78267 -2.147326,-29.63696 -2.752484,-44.47954 -0.06529,-3.32216 -0.311203,-6.65097 -0.193254,-9.975943 0.02336,-0.659008 0.04228,-2.025234 0.459616,-2.69894 0.141126,-0.22782 0.416041,-0.337908 0.624062,-0.506863 0.350425,-0.02684 0.701572,-0.115551 1.051277,-0.08054 2.445973,0.244883 4.946563,1.407277 7.148083,2.380398 3.10042,1.370463 4.71944,2.227928 7.80103,3.767858 1.43157,0.76951 2.86313,1.53903 4.29469,2.30854 -0.43866,-0.21528 -1.7009,-0.94687 -1.316,-0.64583 1.31289,1.0269 2.79993,1.81635 4.11759,2.83711 2.16532,1.67744 4.88968,4.16314 6.48745,6.45116 0.75618,1.08286 1.24873,2.32772 1.87309,3.49159 0.27335,1.15521 0.75989,2.28005 0.82005,3.46564 0.19086,3.7618 -2.04119,6.78776 -4.93714,8.9052 -2.61189,1.90975 -4.11088,2.21685 -7.11237,3.31544 -3.30253,0.95055 -6.71169,1.3297 -10.12506,1.58061 -0.67276,0.0495 -1.34854,0.0559 -2.02032,0.11722 -0.33441,0.0305 -0.76085,-0.0829 -0.99495,0.15781 -0.23637,0.24308 -0.0923,0.6718 -0.1384,1.0077 2.65789,1.41287 5.25032,2.95649 7.97369,4.23862 0.72087,0.33938 1.54684,0.38433 2.3127,0.60408 1.04551,0.29999 2.09021,0.60546 3.12027,0.95483 2.14375,0.72709 5.20167,1.89802 7.21133,2.91444 1.22449,0.61931 2.38051,1.36559 3.57077,2.04839 -0.85845,-0.3297 -2.77116,-1.88759 -2.57534,-0.9891 0.28918,1.32695 2.0427,1.79709 2.96806,2.79114 0.90561,0.97282 1.75127,2.0066 2.51246,3.09614 1.32794,1.9008 2.72311,4.55282 3.42877,6.77846 0.37925,1.19613 0.54158,2.45049 0.81236,3.67574 0.0163,1.27808 0.20488,2.56561 0.0489,3.83423 -0.76355,6.20789 -4.65574,10.84671 -9.9118,13.95841 -1.57919,0.93491 -3.31535,1.57479 -4.97303,2.36218 -1.84321,0.56628 -3.65112,1.26372 -5.52962,1.69884 -7.55943,1.75098 -16.11399,1.74798 -23.695993,0.12326 -1.914935,-0.41034 -3.775345,-1.04318 -5.663014,-1.56477 -3.657899,-1.46235 -7.069593,-2.54292 -10.276414,-4.93366 -0.195715,-0.14591 0.728829,-0.21027 0.601125,-0.41833 -0.832392,-1.35611 -2.252503,-2.28541 -3.090841,-3.63786 -2.215147,-3.57359 -2.046388,-5.31359 -2.655496,-9.37272 0.190487,-1.8031 0.16261,-3.64285 0.571463,-5.40928 2.173174,-9.38904 9.015357,-18.22148 15.282016,-25.26827 2.013286,-2.26392 4.161083,-4.40454 6.241624,-6.60681 10.64524,-10.90092 22.7006,-20.46916 32.48348,-32.2105 1.62499,-1.950302 3.07797,-4.037716 4.61696,-6.056574 4.37716,-7.516342 7.69584,-14.199812 5.86194,-23.114135 -0.32663,-1.587727 -0.80843,-3.159604 -1.49896,-4.626144 -0.61791,-1.312333 -1.59411,-2.423832 -2.39116,-3.635748 -3.71781,-2.927443 -4.64928,-4.093295 -10.15744,-5.519306 -2.30234,-0.596056 -6.26026,0.607234 -8.21729,1.59871 -3.73367,1.891557 -4.64031,3.414562 -7.50031,6.455627 -1.0304,1.608659 -2.22105,3.125282 -3.09119,4.825973 -1.86591,3.646903 -3.34652,8.436153 -3.86888,12.474776 -1.205844,9.323041 0.11478,18.798953 1.04453,28.069381 2.54331,19.90874 6.33013,39.62379 10.2406,59.29984 1.81893,8.57069 3.84582,17.09565 5.94841,25.6006 0.57566,2.32853 1.16884,4.65269 1.75373,6.97892 0.52607,2.09225 1.14935,4.16238 1.57914,6.27651 0.36567,1.79868 0.53618,3.63158 0.80427,5.44738 -0.29159,1.47128 -0.23168,3.0588 -0.87476,4.41384 -1.40715,2.96496 -4.3025,4.45369 -7.26301,5.36053 -6.28556,1.92535 -12.85091,1.09659 -19.236544,0.47397 -6.234893,-0.82203 -12.207246,-2.7472 -18.204376,-4.5353 -1.305838,-0.38935 -2.606781,-0.80053 -3.931057,-1.12162 -4.157954,-1.00813 -0.369504,0.32417 -3.601194,-0.90819 0,0 0.1245,0.0995 0.1245,0.0995 v 0 c 2.711159,1.51197 3.868629,2.23072 7.012421,3.55504 7.301582,3.07578 15.147756,4.76639 22.919423,6.11174 6.467687,0.59362 13.301597,1.49944 19.649017,-0.55462 3.16076,-1.02284 6.00571,-2.69934 7.34582,-5.92233 0.60749,-1.46104 0.47247,-3.12912 0.7087,-4.69368 -0.30385,-1.85202 -0.50822,-3.72313 -0.91155,-5.55606 -0.35917,-1.63217 -3.33902,-12.15438 -3.68457,-13.42103 -2.32843,-8.53516 -4.51073,-17.11226 -6.34678,-25.76843 -4.10877,-19.63581 -7.81406,-39.38412 -10.32586,-59.29364 -0.75749,-7.86817 -1.30713,-11.506816 -1.28828,-19.376127 0.0178,-7.42718 0.70165,-14.194615 3.88132,-20.992229 0.79789,-1.705753 1.90688,-3.247874 2.86032,-4.87181 1.16273,-1.252614 2.18744,-2.649233 3.4882,-3.757845 2.23007,-1.900643 5.07167,-3.371223 7.98241,-3.871992 1.31989,-0.227076 2.69641,0.157001 4.01735,-0.06393 0.2773,-0.04638 0.23017,-0.805601 0.48613,-0.689277 1.22659,0.557445 2.17251,1.594141 3.25877,2.391212 2.33173,3.346942 3.19475,3.864403 3.98456,8.09676 1.05452,5.650868 -0.48188,11.430045 -2.907,16.516966 -0.99162,2.080006 -2.28473,4.002366 -3.4271,6.003547 -1.51354,2.019591 -2.93506,4.111546 -4.54063,6.058773 -9.77047,11.849552 -22.20599,21.083722 -33.095496,31.819532 -2.144509,2.17763 -4.36994,4.27842 -6.433526,6.53288 -3.208856,3.50566 -7.412083,8.76334 -10.022377,12.77086 -2.236708,3.43397 -4.982901,8.37663 -6.038112,12.43872 -0.468437,1.80328 -0.417383,3.7028 -0.626075,5.5542 0.632557,4.1664 0.492889,6.0699 2.733876,9.76083 2.849607,4.69334 7.356512,6.80615 11.995245,9.71731 4.466359,2.80299 5.456073,2.92101 10.4013,4.86551 5.128082,1.4409 6.670627,2.08735 12.004845,2.72235 6.08676,0.72459 12.38385,0.42017 18.36092,-0.97523 1.91325,-0.44666 3.75406,-1.16069 5.63108,-1.74103 1.71937,-0.79845 3.51962,-1.44184 5.15809,-2.39534 2.48766,-1.44769 5.74525,-4.13766 7.44465,-6.52264 1.32057,-1.85332 2.70736,-5.61615 3.03595,-7.85303 0.19153,-1.3038 0.0218,-2.63548 0.0327,-3.95323 -0.24908,-1.2631 -0.37919,-2.55561 -0.74725,-3.78931 -1.11521,-3.73804 -3.31132,-7.28647 -5.89991,-10.17272 -0.91711,-1.02258 -1.83413,-2.07555 -2.94823,-2.879 -2.97262,-2.14375 -6.17418,-3.9507 -9.26126,-5.92604 -1.2138,-0.67116 -2.39652,-1.40188 -3.64139,-2.01346 -2.05998,-1.01202 -5.21075,-2.1983 -7.38259,-2.95481 -1.09168,-0.38025 -2.19767,-0.71816 -3.29882,-1.07005 -0.84022,-0.26852 -3.17035,-1.39272 -2.52523,-0.79114 1.54191,1.43785 3.55296,2.27073 5.32943,3.40609 -0.25616,0.14268 -0.70015,0.1429 -0.7685,0.42804 -0.0588,0.24547 0.4731,-0.18446 0.72123,-0.2308 0.61227,-0.11435 1.23451,-0.16665 1.8518,-0.24974 3.35755,-0.45194 6.72503,-0.89553 9.97546,-1.90035 3.09123,-1.18449 4.60008,-1.52017 7.29484,-3.5189 3.07949,-2.28409 5.48422,-5.5071 5.33416,-9.53175 -0.0467,-1.25332 -0.55437,-2.44636 -0.83157,-3.66955 -0.63243,-1.22455 -1.12235,-2.53395 -1.89732,-3.67366 -0.84266,-1.23927 -1.87207,-2.34763 -2.92326,-3.41575 -2.33158,-2.36915 -4.95171,-4.38936 -7.77271,-6.14006 -7.22974,-4.48675 -8.53001,-5.10872 -14.53092,-8.325452 -2.89092,-1.447443 -5.12704,-2.611917 -8.0663,-3.914804 -2.157065,-0.956162 -5.368062,-2.480525 -7.851568,-2.352212 -0.467836,0.02418 -0.894554,0.27855 -1.341829,0.417827 -0.260435,0.293595 -0.604359,0.530479 -0.781304,0.880785 -0.425371,0.842134 -0.321022,2.203034 -0.284022,3.045865 0.151484,3.450709 0.620609,6.881771 0.843634,10.326971 1.22382,14.92636 2.146224,29.87313 3.332409,44.80197 0.824756,8.82301 1.445543,18.20015 3.91673,26.76262 0.17748,0.61495 0.420844,1.20895 0.631267,1.81343 0.05929,0.1496 0.709083,1.9164 0.918963,2.0565 0.53952,0.36014 6.70779,6.10374 7.96888,3.72393 0.0626,-0.1181 0.0419,-0.26403 0.0628,-0.39604 -0.88354,-1.92107 -2.47441,-3.38665 -3.77375,-5.02582 z" />
  </g>
</svg>
