<svg width="72" height="72" viewBox="0 0 72 72" fill="none" xmlns="http://www.w3.org/2000/svg">
<g clip-path="url(#clip0_22_17)">
<path d="M36 20C51.6 20 64 16.4 64 12C64 7.6 51.6 4 36 4C20.4 4 8 7.6 8 12C8 16.4 20.4 20 36 20ZM36 56C20.4 56 8 52.4 8 48V60C8 64.4 20.4 68 36 68C51.6 68 64 64.4 64 60V48C64 52.4 51.6 56 36 56ZM36 40C20.4 40 8 36.4 8 32V44C8 48.4 20.4 52 36 52C51.6 52 64 48.4 64 44V32C64 36.4 51.6 40 36 40ZM36 24C20.4 24 8 20.4 8 16V28C8 32.4 20.4 36 36 36C51.6 36 64 32.4 64 28V16C64 20.4 51.6 24 36 24Z" fill="#5299BC" stroke="#B5B5B5" stroke-width="2"/>
</g>
<defs>
<clipPath id="clip0_22_17">
<rect width="80" height="80" fill="white" transform="translate(-4 -4)"/>
</clipPath>
</defs>
</svg>
